<?xml version="1.0" encoding="UTF-8" standalone="no"?>
<!-- Generator: Adobe Illustrator 18.0.0, SVG Export Plug-In . SVG Version: 6.00 Build 0)  -->

<svg
   xmlns:dc="http://purl.org/dc/elements/1.1/"
   xmlns:cc="http://creativecommons.org/ns#"
   xmlns:rdf="http://www.w3.org/1999/02/22-rdf-syntax-ns#"
   xmlns:svg="http://www.w3.org/2000/svg"
   xmlns="http://www.w3.org/2000/svg"
   xmlns:sodipodi="http://sodipodi.sourceforge.net/DTD/sodipodi-0.dtd"
   xmlns:inkscape="http://www.inkscape.org/namespaces/inkscape"
   version="1.1"
   id="Capa_1"
   x="0px"
   y="0px"
   viewBox="0 0 301.219 301.219"
   style="enable-background:new 0 0 301.219 301.219;"
   xml:space="preserve"
   sodipodi:docname="ascending-sort-svgrepo-com (копия).svg"
   inkscape:version="0.92.4 (5da689c313, 2019-01-14)"><metadata
   id="metadata51"><rdf:RDF><cc:Work
       rdf:about=""><dc:format>image/svg+xml</dc:format><dc:type
         rdf:resource="http://purl.org/dc/dcmitype/StillImage" /><dc:title></dc:title></cc:Work></rdf:RDF></metadata><defs
   id="defs49" /><sodipodi:namedview
   pagecolor="#ffffff"
   bordercolor="#666666"
   borderopacity="1"
   objecttolerance="10"
   gridtolerance="10"
   guidetolerance="10"
   inkscape:pageopacity="0"
   inkscape:pageshadow="2"
   inkscape:window-width="1055"
   inkscape:window-height="666"
   id="namedview47"
   showgrid="false"
   inkscape:zoom="0.78348313"
   inkscape:cx="153.1622"
   inkscape:cy="145.50409"
   inkscape:window-x="90"
   inkscape:window-y="28"
   inkscape:window-maximized="0"
   inkscape:current-layer="Capa_1" />
<g
   id="g14"
   transform="matrix(0.87848649,0,0,1,160,8.4829941)"
   style="fill:#ffffff">
	<path
   d="m 159.365,23.736 v -10 c 0,-5.523 -4.477,-10 -10,-10 H 10 c -5.523,0 -10,4.477 -10,10 v 10 c 0,5.523 4.477,10 10,10 h 139.365 c 5.523,0 10,-4.477 10,-10 z"
   id="path2"
   inkscape:connector-curvature="0"
   style="fill:#ffffff" />
	<path
   d="M 130.586,66.736 H 10 c -5.523,0 -10,4.477 -10,10 v 10 c 0,5.523 4.477,10 10,10 h 120.586 c 5.523,0 10,-4.477 10,-10 v -10 c 0,-5.523 -4.477,-10 -10,-10 z"
   id="path4"
   inkscape:connector-curvature="0"
   style="fill:#ffffff" />
	<path
   d="M 111.805,129.736 H 10 c -5.523,0 -10,4.477 -10,10 v 10 c 0,5.523 4.477,10 10,10 h 101.805 c 5.523,0 10,-4.477 10,-10 v -10 c 0,-5.523 -4.477,-10 -10,-10 z"
   id="path6"
   inkscape:connector-curvature="0"
   style="fill:#ffffff" />
	<path
   d="M 93.025,199.736 H 10 c -5.523,0 -10,4.477 -10,10 v 10 c 0,5.523 4.477,10 10,10 h 83.025 c 5.522,0 10,-4.477 10,-10 v -10 c 0,-5.523 -4.477,-10 -10,-10 z"
   id="path8"
   inkscape:connector-curvature="0"
   style="fill:#ffffff" />
	<path
   d="M 74.244,262.736 H 10 c -5.523,0 -10,4.477 -10,10 v 10 c 0,5.523 4.477,10 10,10 h 64.244 c 5.522,0 10,-4.477 10,-10 v -10 c 0,-5.523 -4.477,-10 -10,-10 z"
   id="path10"
   inkscape:connector-curvature="0"
   style="fill:#ffffff" />
	
</g>
<g
   id="g16">
</g>
<g
   id="g18">
</g>
<g
   id="g20">
</g>
<g
   id="g22">
</g>
<g
   id="g24">
</g>
<g
   id="g26">
</g>
<g
   id="g28">
</g>
<g
   id="g30">
</g>
<g
   id="g32">
</g>
<g
   id="g34">
</g>
<g
   id="g36">
</g>
<g
   id="g38">
</g>
<g
   id="g40">
</g>
<g
   id="g42">
</g>
<g
   id="g44">
</g>
<path
   inkscape:connector-curvature="0"
   d="m 2.928749,93.077999 7.071,7.071001 c 1.875,1.875 4.419,2.929 7.071,2.929 2.652,0 5.196,-1.054 7.072,-2.929 l 34.393,-34.393001 V 291.21899 c 0,5.523 4.477,10 10,10 h 10 c 5.523,0 10,-4.477 10,-10 V 65.756999 L 122.92875,100.15 c 1.876,1.875 4.419,2.929 7.071,2.929 2.652,0 5.196,-1.054 7.071,-2.929 l 7.072,-7.071001 c 3.904,-3.905 3.904,-10.237 0,-14.142 l -63.536001,-63.536 c -1.953,-1.953 -4.512,-2.929 -7.071,-2.929 -2.559,0 -5.119,0.976 -7.071,2.929 l -63.536,63.536 c -3.905,3.905 -3.905,10.237 0,14.141 z"
   id="path12"
   style="fill:#ffffff" /></svg>